{"title":"Ballers S01 Season 1 Complete 720p BluRay ~{KiNg}","uid":15062671,"size":2901710103,"categoryP":"video","categoryS":"hd___tv_shows","magnet":"?xt=urn:btih:4ab5aef36b36f00691843b931198710171675a43&amp;dn=Ballers+S01+Season+1+Complete+720p+BluRay+%7E%7BKiNg%7D&amp;tr=udp%3A%2F%2Ftracker.leechers-paradise.org%3A6969&amp;tr=udp%3A%2F%2Fzer0day.ch%3A1337&amp;tr=udp%3A%2F%2Fopen.demonii.com%3A1337&amp;tr=udp%3A%2F%2Ftracker.coppersurfer.tk%3A6969&amp;tr=udp%3A%2F%2Fexodus.desync.com%3A6969","seeders":321,"leechers":67,"uploader":"Uplaoderking","files":10,"time":1466770850,"description":"General\r\nFormat : Matroska\r\nFormat version : Version 4 / Version 2\r\nFile size : 289 MiB\r\nDuration : 30mn 13s\r\nOverall bit rate : 1 335 Kbps\r\n\r\nVideo\r\nID : 1\r\nFormat : AVC\r\nFormat/Info : Advanced Video Codec\r\nFormat profile :   \r\nFormat settings, CABAC : Yes\r\nFormat settings, ReFrames : 4 frames\r\nCodec ID : V_MPEG4/ISO/AVC\r\nDuration : 30mn 13s\r\nBit rate : 1 241 Kbps\r\nWidth : 1 280 pixels\r\nHeight : 720 pixels\r\nDisplay aspect ratio : 16:9\r\nFrame rate mode : Constant\r\nFrame rate : 23.976 (24000/1001) fps\r\nColor space : YUV\r\nChroma subsampling : 4:2:0\r\nBit depth : 8 bits\r\nScan type : Progressive\r\nBits/(Pixel*Frame) : 0.056\r\nStream size : 268 MiB (93%)\r\n\r\nAudio\r\nID : 2\r\nFormat : AAC\r\nFormat/Info : Advanced Audio Codec\r\nFormat profile : LC\r\nCodec ID : A_AAC\r\nDuration : 30mn 13s\r\nBit rate : 80.7 Kbps\r\nChannel(s) : 2 channels\r\nChannel positions : Front: L R\r\nSampling rate : 48.0 KHz\r\nFrame rate : 46.875 fps (1024 spf)\r\nCompression mode : Lossy\r\nDelay relative to video : 9ms\r\nStream size : 17.4 MiB (6%)\r\nLanguage : English\r\nDefault : No\r\nForced : No\r\n\r\nText\r\nID : 3\r\nFormat : VobSub\r\nMuxing mode : zlib\r\nCodec ID : S_VOBSUB\r\nCodec ID/Info : Picture based subtitle format used on DVDs\r\nDuration : 29mn 10s\r\nBit rate : 10.7 Kbps\r\nCount of elements : 648\r\nStream size : 2.23 MiB (1%)\r\nLanguage : English\r\nDefault : No\r\nForced : No\r\n\r\n\r\n\r\n\r\nPLEASE SEED!!","torrent":{"xt":"urn:btih:4ab5aef36b36f00691843b931198710171675a43","amp;dn":"Ballers+S01+Season+1+Complete+720p+BluRay+%7E%7BKiNg%7D","amp;tr":["udp%3A%2F%2Ftracker.leechers-paradise.org%3A6969","udp%3A%2F%2Fzer0day.ch%3A1337","udp%3A%2F%2Fopen.demonii.com%3A1337","udp%3A%2F%2Ftracker.coppersurfer.tk%3A6969","udp%3A%2F%2Fexodus.desync.com%3A6969"],"infoHash":"4ab5aef36b36f00691843b931198710171675a43","infoHashBuffer":{"type":"Buffer","data":[74,181,174,243,107,54,240,6,145,132,59,147,17,152,113,1,113,103,90,67]},"announce":[],"urlList":[]}}